<?xml version="1.0" encoding="utf-8"?>
<!-- Generator: Adobe Illustrator 26.1.0, SVG Export Plug-In . SVG Version: 6.00 Build 0)  -->
<svg version="1.1" id="Warstwa_1" xmlns="http://www.w3.org/2000/svg" xmlns:xlink="http://www.w3.org/1999/xlink" x="0px" y="0px"
	 viewBox="0 0 595.28 841.89" style="enable-background:new 0 0 595.28 841.89;" xml:space="preserve">
<style type="text/css">
	.st0{fill-rule:evenodd;clip-rule:evenodd;fill:#020203;}
</style>
<path class="st0" d="M370.8,158.98c21.98,5.29,51.78,17.17,67.76,27.01l11.23,6.92l-15.41,15.61c-8.48,8.58-14.69,16.32-13.82,17.2
	c0.88,0.88,11.79-3.71,24.24-10.19l22.65-11.79l12.82,12.44c41.74,40.51,67.36,102.67,67.36,163.42c0,56.28-17.1,79.79-67.1,92.24
	c-14.91,3.72-31.88,8.77-37.71,11.23c-10.88,4.59-28.42,20.75-28.7,26.45c-0.09,1.76-1.21,24.72-2.49,51.03
	c-1.55,31.86-3.81,51.33-6.78,58.32c-5.65,13.32-22.36,26.2-34.71,26.76l-9.49,0.44l-1.83-35.65c-1.01-19.61-2.6-36.42-3.54-37.36
	c-3.08-3.08-7.02,11.9-9.17,34.8c-1.52,16.27-3.41,23.14-6.84,24.98c-6.08,3.25-33.03,0.36-35.83-3.85
	c-1.17-1.76-2.15-9.87-2.17-18.02c-0.06-19.55-3.19-41.71-5.89-41.71c-1.19,0-2.7,16.26-3.36,36.12
	c-0.66,19.87-2.02,36.94-3.02,37.94c-1,1-9.55,2.52-19.01,3.38l-17.19,1.56l-4.89-27.18c-2.69-14.95-6.35-31.72-8.13-37.28
	c-2.83-8.82-3.53-9.37-5.49-4.35c-1.24,3.16-2.34,19.7-2.45,36.74c-0.12,17.7-1.47,31.78-3.16,32.82
	c-4.89,3.02-21.67-3.99-29.73-12.42c-16.28-17.04-19.36-29.71-19.43-80.04c-0.08-57.51-1.59-60.9-32.77-73.67
	c-11.51-4.71-30.33-10.81-41.82-13.56c-24.9-5.95-44.95-17.9-52.14-31.08c-4.27-7.82-5.22-16.28-5.17-45.82
	c0.06-33.52,0.79-38.3,9.72-63.78c10-28.54,25.33-58.74,44.34-87.37c16.6-24.99,19.02-24.95,20.67,0.4l0.85,13.05l21.6,1.83
	c11.88,1.01,29.34,3.29,38.8,5.07c28.26,5.33,27.72,3.68-3.98-12.12l-30.26-15.08l-1.1-20.61l-1.1-20.61l11.07-6.54
	c19.74-11.67,53.89-23.63,83.54-29.27C276.3,150.81,340.2,151.61,370.8,158.98z M274.65,432.99c-7.94,11.9-11.96,31.66-12.52,61.65
	c-0.52,27.57-0.37,28.25,5.51,26.09c3.32-1.22,17.56-2.22,31.63-2.22h25.59l-0.95-34.79c-0.75-27.46-2.15-37.22-6.68-46.35
	l-5.73-11.56l-3.27,28.96c-3.6,31.86-8.21,44.9-15.86,44.9c-7.31,0-9.01-6.48-11.06-42.03
	C279.54,426.63,279.35,425.94,274.65,432.99z M141.79,327.73c-24.35,8.64-43.48,38.18-43.48,67.13v17.12l15.22,6.74
	c13.66,6.05,19.68,6.75,58.7,6.88c35.46,0.12,46.02-0.84,57.25-5.17l13.77-5.31l-0.04-16.43c-0.06-28.99-23.1-59.92-51.85-69.63
	C181.44,325.7,149.87,324.86,141.79,327.73z M386,337.32c-25.41,12.85-36.39,29.01-37.92,55.8c-1.02,17.77-0.49,20.07,5.73,25.12
	c10.96,8.89,28.06,12.62,57.67,12.56c31.21-0.06,59.55-6.18,72.31-15.61c7.84-5.8,8.46-7.57,7.83-22.51
	c-1.61-38.11-25.44-61.07-65.74-63.32C405.97,328.24,402.62,328.91,386,337.32z"/>
</svg>
