<?xml version="1.0" encoding="utf-8"?>
<!-- Generator: Adobe Illustrator 26.1.0, SVG Export Plug-In . SVG Version: 6.00 Build 0)  -->
<svg version="1.1" id="Warstwa_1" xmlns="http://www.w3.org/2000/svg" xmlns:xlink="http://www.w3.org/1999/xlink" x="0px" y="0px"
	 viewBox="0 0 595.28 841.89" style="enable-background:new 0 0 595.28 841.89;" xml:space="preserve">
<style type="text/css">
	.st0{fill-rule:evenodd;clip-rule:evenodd;fill:#020203;}
</style>
<path class="st0" d="M361.52,175.25c-0.02,2.7-1.96,12.49-4.29,21.76c-6.05,23.97-8.6,84.94-4.21,100.6
	c4.25,15.19,13.96,30.18,32.42,50.05c60.29,64.88,81.88,104.5,84.79,155.56c2.86,50.22-9.28,82.18-44.47,117.04
	c-35.21,34.89-75.94,50.57-131.57,50.68c-48.88,0.1-89.33-15.02-117.7-43.98c-36.78-37.53-51.86-77.3-51.83-136.6
	c0.03-42.24,6.12-68.57,24.89-107.49c32.47-67.34,79.97-122.53,146.11-169.78c9.23-6.59,26.25-18.81,37.83-27.15
	C356.12,169.63,361.58,167.55,361.52,175.25z M388.66,451.44c-8.88,5.16-15.75,24.61-15.81,44.81
	c-0.09,26.96,8.72,41.92,27.94,47.43c12.64,3.62,28.01-4.41,34.51-18.05c6.35-13.32,6.07-19.39-1.81-38.54
	C420.78,456.2,403.76,442.66,388.66,451.44z"/>
</svg>
