<?xml version="1.0" encoding="utf-8"?>
<!-- Generator: Adobe Illustrator 26.1.0, SVG Export Plug-In . SVG Version: 6.00 Build 0)  -->
<svg version="1.1" id="Warstwa_1" xmlns="http://www.w3.org/2000/svg" xmlns:xlink="http://www.w3.org/1999/xlink" x="0px" y="0px"
	 viewBox="0 0 595.28 841.89" style="enable-background:new 0 0 595.28 841.89;" xml:space="preserve">
<style type="text/css">
	.st0{fill-rule:evenodd;clip-rule:evenodd;fill:#020203;}
</style>
<path class="st0" d="M323.67,182.81c8.73,4.06,21.53,12.02,28.45,17.69l12.58,10.31l18.64-3.25c41.52-7.23,69.17,7.6,81.52,43.71
	c3.9,11.41,5.8,13.21,18.04,17.11c18.36,5.85,26.43,18.78,22.02,35.29c-3,11.23-2.98,11.27,10.73,21.12
	c25.08,18.01,32.62,47.86,18.84,74.51c-4.59,8.87-4.49,9.49,3.36,20.81c11.54,16.65,13.14,43.12,3.49,57.56
	c-15.3,22.9-54.79,32.01-89.43,20.64c-19.85-6.52-52.49-8.19-65.23-3.34c-35.84,13.63-40.81,56.17-10.18,87.06
	c9.4,9.47,46.12,29.36,54.22,29.36c2.14,0,3.18,1.14,2.33,2.53s-8.33,2.68-16.6,2.86c-26.36,0.59-33.58,11.01-25.99,37.47
	c1.48,5.16,1.65,10.03,0.38,10.82s-10.04-2.32-19.49-6.9c-9.45-4.58-23.68-10.58-31.63-13.34c-17.29-6.01-55.02-7.22-65.32-2.1
	c-14.87,7.4-27.72,15.75-31.25,20.31c-2,2.58-3.76,4.12-3.92,3.41s-0.81-7.06-1.44-14.13c-2.05-22.92-12.21-32.29-35.96-33.15
	c-16.07-0.59-16.31-2.96-0.78-7.9c31.37-9.97,58.51-39.61,61.02-66.63c3.47-37.44-26.98-50.95-72.89-32.34
	c-33.2,13.46-42.83,15.87-64.47,16.06c-42.83,0.38-77.03-26.34-77.03-60.2c0-16.79,3.1-24.99,14.29-37.72
	c8.73-9.94,8.78-10.17,3.21-15.21c-6.06-5.49-11.38-19.03-13.24-33.72c-2.18-17.19,18.38-45.42,38.31-52.63
	c8.14-2.94,9.76-4.79,8.36-9.55c-4.01-13.66-4.84-35.8-1.77-47.16c2.08-7.7,7.97-16.86,15.98-24.88
	c22.13-22.13,49.26-25.19,86.14-9.71c3.26,1.37,5.88-1.27,9.57-9.62c5.94-13.47,27.24-35.98,40.55-42.86
	C272.74,172.86,300.45,172,323.67,182.81z M288.83,345.5c-2.82,3.4-2.92,6.14-0.42,11.63c1.8,3.95,4.52,7.18,6.05,7.18
	c3.98,0,6.79-10.61,4.62-17.44C296.87,339.91,293.81,339.5,288.83,345.5z M355.14,363.58c-5.63,6.47-8.93,29.83-4.19,29.7
	c1.85-0.05,6.95-3.26,11.35-7.13c9.88-8.69,11.68-27.66,2.63-27.66C361.98,358.5,357.58,360.79,355.14,363.58z M222.05,376.88
	c0,8.22,9.34,17.3,23.98,23.33c9.7,3.99,10.9,4,10.9,0.09c0-12.56-15.57-30.18-26.67-30.18C223.6,370.12,222.05,371.4,222.05,376.88
	z M200.97,437.24c-2.8,1.62-5.09,5.56-5.09,8.76c0,7.71,16.5,14.53,39.24,16.22l17.44,1.3l-11.63-10.52
	C224.79,438.38,209.46,432.33,200.97,437.24z M379.6,431.08c-6.55,4.75-13.33,11.29-15.07,14.53c-2.97,5.54-2.33,5.9,10.31,5.9
	c7.41,0,17.93-2.12,23.39-4.71c9.73-4.62,15.3-15,11.41-21.29C406.07,419.75,391.53,422.44,379.6,431.08z"/>
</svg>
