<?xml version="1.0" encoding="utf-8"?>
<!-- Generator: Adobe Illustrator 26.1.0, SVG Export Plug-In . SVG Version: 6.00 Build 0)  -->
<svg version="1.1" id="Warstwa_1" xmlns="http://www.w3.org/2000/svg" xmlns:xlink="http://www.w3.org/1999/xlink" x="0px" y="0px"
	 viewBox="0 0 595.28 841.89" style="enable-background:new 0 0 595.28 841.89;" xml:space="preserve">
<style type="text/css">
	.st0{fill-rule:evenodd;clip-rule:evenodd;fill:#020203;}
</style>
<path class="st0" d="M223.44,230.68c0,2.98,12.53,25.99,20.45,37.56c15.26,22.28,38.03,32.54,59.42,26.78
	c19.96-5.38,29.53-22.59,23.21-41.75c-2.56-7.75-6.06-11.55-13.55-14.68c-8.99-3.76-12.42-3.7-31.27,0.49
	c-22.9,5.09-34.08,4.07-48.95-4.49C227.63,231.64,223.44,229.89,223.44,230.68z"/>
<path class="st0" d="M153.25,165.83c-12.7,3.09-26.06,10.67-34.46,19.55c-8.71,9.21-27.97,40.91-26.04,42.85
	c0.73,0.73,7.04-3.92,14.01-10.35c6.97-6.43,17.23-13.58,22.79-15.91c9.34-3.9,10.49-3.81,15.01,1.18
	c4.64,5.13,4.51,5.97-2.52,16.31c-10.59,15.59-9.56,21.32,1.9,10.52c11.48-10.82,25.93-15.9,38.49-13.55
	c12.85,2.41,23-4.47,25.39-17.21C212.6,173.74,186.47,157.75,153.25,165.83z"/>
<path class="st0" d="M236.33,127.56c-3.15,0.75-16.69,3.56-30.08,6.26l-24.35,4.9l21.14,2.15c27.31,2.78,56.73,10.06,67.89,16.81
	c14.59,8.82,19.9,26.43,10.52,34.88c-7.47,6.73-18.77,8.65-31.02,5.27c-6-1.66-11.53-2.4-12.28-1.65
	c-3.28,3.28,12.57,15.28,25.85,19.57c19.21,6.2,33.23,5.92,61.35-1.26c28.75-7.33,41.46-4.87,58.5,11.34
	c9.74,9.26,11.46,12.68,11.46,22.64c0,6.45-1.33,12.55-2.95,13.56c-1.62,1-7.44-2.12-12.93-6.94
	c-12.88-11.31-23.12-16.51-37.22-18.89l-11.36-1.92l9.39,7.68c10.95,8.95,19.03,23.63,23.83,43.27
	c4.18,17.11,6.38,20.05,20.41,27.21c15.7,8.01,22.27,20.19,22.23,41.21c-0.03,18.32-3.89,29-12.3,34.09
	c-4.23,2.57-6.27,1.83-11.03-3.98c-4.83-5.89-5.65-10.18-4.71-24.85c1.11-17.43,1.05-17.6-3.55-10.07
	c-2.57,4.21-11.01,16.04-18.75,26.28c-7.79,10.32-17.83,28.51-22.49,40.79c-7.91,20.83-20.65,39.42-27,39.42
	c-1.55,0-4.94-2.12-7.53-4.71c-8.92-8.92-2.95-20.22,29.64-56.17c21.06-23.23,31.75-43.25,33.77-63.24l1.49-14.82l-8.1,9.23
	c-4.46,5.07-15.83,12.72-25.27,17c-20.41,9.24-48.6,10.25-78.8,2.8c-37.18-9.17-80.45-2.81-117.45,17.24
	c-35.63,19.31-57.68,49.23-62.77,85.13c-10.01,70.7,40.23,137.57,126.86,168.84c19.72,7.12,28.91,8.63,60.02,9.88
	c46.21,1.85,61.57-2.27,97.88-26.3c17.25-11.41,32.84-19.13,47.06-23.3l21.26-6.23l-10.44-3.44c-12.48-4.12-31.76-4.78-54.44-1.87
	c-19.78,2.54-30.64-2.49-30.64-14.18c0-11.9,14.85-19.06,35.81-17.28c62.28,5.3,70.32,5.3,82.55-0.01
	c19.47-8.46,27.03-14.88,43.12-36.64c8.38-11.34,19.41-24.12,24.5-28.4l9.26-7.79h-11.85c-8.08,0-19.49,3.75-35.87,11.79
	c-27.87,13.68-46.78,17.17-52.93,9.76c-6-7.23-1.1-12.86,21.63-24.9c10.92-5.78,24.87-16.09,31-22.92
	c15.25-16.97,32.47-53.82,38.28-81.95c4.54-21.97,4.54-24.73-0.12-47.09c-6.59-31.67-18.99-56.02-39.9-78.37
	c-9.49-10.15-18.98-23.28-21.09-29.18L450,187.5l-0.13,15.28c-0.09,11,2.34,20.9,8.7,35.39c9.52,21.69,9.55,33.84,0.09,33.84
	c-4.1,0-7.05-5.35-13.05-23.63c-12.49-38.07-26.89-59.03-54.62-79.51c-34.86-25.75-75.37-39.91-118.86-41.54
	C255.59,126.71,239.48,126.81,236.33,127.56z"/>
</svg>
