<?xml version="1.0" encoding="utf-8"?>
<!-- Generator: Adobe Illustrator 26.1.0, SVG Export Plug-In . SVG Version: 6.00 Build 0)  -->
<svg version="1.1" id="Warstwa_1" xmlns="http://www.w3.org/2000/svg" xmlns:xlink="http://www.w3.org/1999/xlink" x="0px" y="0px"
	 viewBox="0 0 595.3 841.9" style="enable-background:new 0 0 595.3 841.9;" xml:space="preserve">
<style type="text/css">
	.st0{fill:#020203;}
</style>
<path class="st0" d="M508.9,451.8c-29.1-16.4-47.7-24.6-55.9-24.6c-6,0-10.6,4.6-14,13.7s-10.1,13.7-20.1,13.7
	c-4.1,0-12.5-1.5-25.2-4.5c-7.1,10.8-10.6,17.7-10.6,20.7c0,4.1,3.1,8.9,9.2,14.5s11.2,8.4,15.4,8.4c2.7,0,6.3-0.6,10.9-1.7
	c4.6-1.1,7.6-1.7,9.2-1.7c4.6,0,6.9,8.4,6.9,25.2c0,16-3.7,40.6-11.2,73.9c-9.7-38-20-57.1-30.8-57.1c-1.5,0-4.6,1.1-9.2,3.4
	c-4.7,2.2-8.1,3.3-10.4,3.3c-10.8,0-20.5-9.9-29.1-29.7c-17.2,2.6-25.7,11.4-25.7,26.3c0,7.5,3.4,13.4,10.4,17.9
	c6.9,4.5,10.4,7.7,10.4,9.5c0,10.1-14.7,25.6-44.2,46.4c-15.7,11.2-26.5,19-32.4,23.5c5.2-6.7,10.4-15.5,15.7-26.3
	c6-12.3,8.9-21.8,8.9-28.5c0-3.7-4.3-9-12.9-15.7c-8.6-6.7-12.9-13.8-12.9-21.2c0-6.3,2.2-14.2,6.7-23.5c-4.8-5.6-10.6-8.4-17.3-8.4
	c-14.9,0-22.4,4.9-22.4,14.5c0-6.7,0-1.7,0,15.1c0.4,12.3-9,18.5-28,18.5c-14.5,0-39-3.4-73.3-10.1c38.8-9.7,58.2-20.9,58.2-33.6
	c0,1.5-0.7-3-2.2-13.4c-1.5-11.5,6.7-22,24.6-31.3c-3.4-17.2-12.3-25.8-26.9-25.8c-2.2,0-6.4,3.9-12.3,11.7
	c-6,7.9-11.6,11.8-16.8,11.8c-9,0-20.5-9.7-34.7-29.1c-6.7-9.7-17-24.1-30.8-43.1c8.6,4.5,17.2,9,25.7,13.4
	c11.2,5.2,20.1,7.8,26.9,7.8c5.2,0,10.4-4.6,15.4-13.7c5-9.1,11.7-13.7,19.9-13.7c1.1,0,8.6,2.2,22.4,6.7
	c7.1-10.8,10.6-18.8,10.6-24.1c0-4.5-2.7-9.6-8.1-15.4c-5.4-5.8-10.4-8.7-14.8-8.7c-1.9,0-4.8,0.6-8.7,1.7c-3.9,1.1-6.8,1.7-8.7,1.7
	c-6.7,0-10.1-8.4-10.1-25.2c0-4.5,4.3-30,12.9-76.6c-0.4,5.6,2,16,7.3,31.3c6.3,18.7,13.8,28,22.4,28c1.5,0,4.5-1.1,8.9-3.4
	c4.5-2.2,8-3.3,10.6-3.3c8.6,0,15.7,4.8,21.3,14.5l8.4,15.1c7.8,0,14.4-2.8,19.6-8.4c5.2-5.6,7.8-12.3,7.8-20.1
	c0-8.2-3.4-14.5-10.4-18.7c-6.9-4.3-10.4-7.5-10.4-9.8c0-7.8,12.3-21.1,36.9-39.7c19.8-14.9,32.6-23.7,38.6-26.3
	c-16,21.6-24.1,37.5-24.1,47.6c0,5.2,3.2,10.8,9.5,16.8c7.8,7.1,12.3,12.1,13.4,15.1c3.7,8.6,3.3,20.3-1.1,35.3
	c10.1,7.1,17.7,10.6,22.9,10.6c10.8,0,16.2-5.6,16.2-16.8c0-1.1-0.5-4.7-1.4-10.6c-0.9-6-1.2-9.3-0.9-10.1
	c1.5-5.2,11.7-7.8,30.8-7.8c11.9,0,36.7,3.4,74.4,10.1c-8.2,2.2-20.5,5.6-36.9,10.1c-14.9,4.5-22.4,9.5-22.4,15.1
	c0,2.6,0.9,7.1,2.8,13.4c1.9,6.3,2.8,11,2.8,14c0,5.2-3.4,10.1-10.1,14.5l-19,13.4c4.5,8.2,7.5,13.1,9,14.5
	c3.7,4.5,8.8,6.7,15.1,6.7c4.5,0,8.6-3.9,12.3-11.7c3.7-7.8,9.7-11.7,17.9-11.7c10.1,0,21.4,9.3,34.1,28
	C483,414.7,494,430.6,508.9,451.8L508.9,451.8z M384.7,419.4c0-23.9-8.8-44.6-26.3-62.1c-17.5-17.5-38.2-26.3-62.1-26.3
	c-24.2,0-45.1,8.7-62.7,26s-26.5,38.1-26.9,62.4c-0.4,23.9,8.5,44.5,26.6,61.8c18.1,17.3,39.1,26,62.9,26c25.4,0,46.5-8.3,63.5-24.9
	C376.8,465.7,385.1,444.7,384.7,419.4L384.7,419.4z M376.3,419.4c0,22.7-7.7,41.6-22.9,56.5c-15.3,14.9-34.3,22.4-57.1,22.4
	c-22,0-40.8-7.6-56.5-22.9c-15.7-15.3-23.5-33.9-23.5-55.9c0-21.6,7.9-40.2,23.8-55.7c15.9-15.5,34.6-23.2,56.2-23.2
	s40.4,7.8,56.2,23.5C368.4,379.7,376.3,398.1,376.3,419.4z"/>
</svg>
